# xmcd
#
# Track frame offsets:
#	150
#	12998
#	30820
#	41968
#	60725
#	75331
#	93719
#	106745
#	120111
#	139440
#	154688
#	167718
#
# Disc length: 2423 seconds
#
# Revision: 1
# Processed by: cddbd v1.5.2PL0 Copyright (c) Steve Scherf et al.
# Submitted via: audiograbber 1.83.01
#
DISCID=8b09750c
DTITLE=Denver John - Greatest Hits
DYEAR=2008
DGENRE=Country
TTITLE0=thank god i´m a country boy
TTITLE1=some days are diamonds (some days are stone)
TTITLE2=follow me
TTITLE3=fly away
TTITLE4=shanghai breezes
TTITLE5=wild montana skies
TTITLE6=love again
TTITLE7=perhaps love (with placido domingo)
TTITLE8=is it love?
TTITLE9=friends with you
TTITLE10=the flower that shattered the stone
TTITLE11=starwood in aspen
EXTD=
EXTT0=
EXTT1=
EXTT2=
EXTT3=
EXTT4=
EXTT5=
EXTT6=
EXTT7=
EXTT8=
EXTT9=
EXTT10=
EXTT11=
PLAYORDER=
